# Media Information
<pre>
General
Unique ID                                : 204593817502394857201934857203948572039 (0x99A8B7C6D5E4F3210123456789ABCDEF)
Complete name                            : X-Men.2000.1080p.BluRay.REMUX.AVC.DTS-HD.MA.5.1-GEMINI.mkv
Format                                   : Matroska
Format version                           : Version 4
File size                                : 24.8 GiB
Duration                                 : 1 h 44 min
Overall bit rate mode                    : Variable
Overall bit rate                         : 34.1 Mb/s
Movie name                               : X-Men
Encoded date                             : UTC 2024-05-12 14:22:10
Writing application                      : mkvmerge v82.0 ('The Great Escape') 64-bit
Writing library                          : libebml v1.4.5 + libmatroska v1.7.1

Video
ID                                       : 1
Format                                   : AVC
Format/Info                              : Advanced Video Codec
Format profile                           : High@L4.1
Format settings                          : CABAC / 4 Ref Frames
Format settings, CABAC                   : Yes
Format settings, Reference frames        : 4 frames
Codec ID                                 : V_MPEG4/ISO/AVC
Duration                                 : 1 h 44 min
Bit rate mode                            : Variable
Bit rate                                 : 28.5 Mb/s
Maximum bit rate                         : 38.0 Mb/s
Width                                    : 1 920 pixels
Height                                   : 1 080 pixels
Display aspect ratio                     : 16:9
Frame rate mode                          : Constant
Frame rate                               : 23.976 (24000/1001) FPS
Color space                              : YUV
Chroma subsampling                       : 4:2:0
Bit depth                                : 8 bits
Scan type                                : Progressive
Bits/(Pixel*Frame)                       : 0.573
Stream size                              : 20.7 GiB (84%)
Language                                 : English
Default                                  : Yes
Forced                                   : No

Audio
ID                                       : 2
Format                                   : DTS XLL
Format/Info                              : Digital Theater Systems
Format profile                           : MA / Core
Codec ID                                 : A_DTS
Duration                                 : 1 h 44 min
Bit rate mode                            : Variable
Bit rate                                 : 4 125 kb/s
Channel(s)                               : 6 channels
Channel layout                           : C L R Ls Rs LFE
Sampling rate                            : 48.0 kHz
Frame rate                               : 93.750 FPS (512 SPF)
Bit depth                                : 24 bits
Compression mode                         : Lossless
Stream size                              : 3.01 GiB (12%)
Title                                    : DTS-HD MA 5.1
Language                                 : English
Default                                  : Yes
Forced                                   : No

Text #1
ID                                       : 3
Format                                   : PGS
Codec ID                                 : S_HDMV/PGS
Codec ID/Info                            : Picture Based Subtitle
Duration                                 : 1 h 38 min
Bit rate                                 : 32.4 kb/s
Count of elements                        : 2154
Stream size                              : 22.8 MiB (0%)
Title                                    : English SDH
Language                                 : English
Default                                  : No
Forced                                   : No

Text #2
ID                                       : 4
Format                                   : PGS
Codec ID                                 : S_HDMV/PGS
Codec ID/Info                            : Picture Based Subtitle
Language                                 : Spanish
Default                                  : No
Forced                                   : No
</pre>